<svg version="1.1" id="Layer_1" xmlns="http://www.w3.org/2000/svg" xmlns:xlink="http://www.w3.org/1999/xlink" x="0px" y="0px"
	 width="100%" viewBox="0 0 1200 1845" enable-background="new 0 0 1200 1845" xml:space="preserve">
<path fill="#000000" opacity="1.000000" stroke="none" 
	d="
M1.000000,705.000000 
	C1.000000,471.500031 1.010527,238.500076 0.906600,5.500166 
	C0.904928,1.751240 1.750495,0.906062 5.499897,0.906999 
	C402.499786,1.006187 799.499695,1.006180 1196.499634,0.907087 
	C1200.247803,0.906151 1201.093506,1.749768 1201.092896,5.499673 
	C1200.995972,617.499573 1200.995972,1229.499512 1201.092651,1841.499390 
	C1201.093262,1845.246826 1200.251343,1846.093994 1196.500732,1846.093018 
	C799.500793,1845.993774 402.500824,1845.993896 5.500908,1846.092896 
	C1.753946,1846.093750 0.905846,1845.252075 0.906833,1841.500854 
	C1.006487,1462.833862 1.000000,1084.166992 1.000000,705.000000 
z"/>
<path fill="#A68137" opacity="1.000000" stroke="none" 
	d="
M496.999969,1284.000000 
	C496.999969,1126.672363 496.999908,969.844604 497.000183,813.016907 
	C497.000183,806.000916 497.001587,806.000305 504.244537,806.000183 
	C526.077087,805.999817 547.910522,806.098877 569.741394,805.909851 
	C573.721313,805.875488 575.102722,806.652100 575.100403,811.003662 
	C574.986084,1026.495850 575.067871,1241.988281 574.870667,1457.480225 
	C574.855042,1474.591187 568.190430,1489.976562 559.151611,1504.471436 
	C547.365906,1523.371094 536.136414,1542.617798 524.689087,1561.728271 
	C511.243591,1584.174438 497.843903,1606.647949 484.382538,1629.084595 
	C469.898376,1653.225952 455.365204,1677.337891 440.854950,1701.463623 
	C439.090363,1704.397583 437.334930,1707.336914 435.308289,1710.719482 
	C545.923523,1710.719482 655.988708,1710.719482 766.741516,1710.719482 
	C763.195007,1704.623535 759.883118,1698.707764 756.363037,1692.918579 
	C740.639160,1667.059082 724.862244,1641.231812 709.092468,1615.400269 
	C695.607544,1593.311523 682.069519,1571.254883 668.623962,1549.142090 
	C657.909424,1531.520508 646.487000,1514.261841 636.920227,1496.032959 
	C630.266418,1483.354858 625.963196,1469.430420 625.966614,1454.593628 
	C626.016296,1241.101318 625.995300,1027.608887 626.020813,814.116577 
	C626.021790,805.847473 624.841797,807.044983 633.147400,807.021912 
	C655.813049,806.958862 678.481079,807.159546 701.143311,806.874023 
	C706.029358,806.812500 707.112793,808.131042 707.109802,812.909729 
	C706.981140,1018.235657 707.018372,1223.561646 706.964172,1428.887573 
	C706.959656,1446.119019 711.799561,1461.699341 720.744446,1476.365967 
	C733.539429,1497.345337 745.829895,1518.631958 758.355591,1539.775879 
	C773.042114,1564.567627 787.790161,1589.323120 802.436707,1614.138428 
	C816.330811,1637.678833 830.056152,1661.318848 843.989319,1684.835938 
	C857.099243,1706.963623 870.455872,1728.945190 883.569336,1751.070801 
	C894.998718,1770.354858 906.233704,1789.754150 917.568481,1809.094360 
	C921.525391,1815.846191 925.523743,1822.573608 929.725098,1829.688110 
	C710.621155,1829.688110 491.980774,1829.688110 272.692047,1829.688110 
	C281.310516,1815.323853 289.594299,1801.456299 297.937653,1787.624634 
	C313.927612,1761.116455 329.940033,1734.621460 345.964722,1708.134155 
	C361.137970,1683.054077 376.380432,1658.015869 391.517120,1632.913940 
	C408.692474,1604.431030 425.775635,1575.892578 442.914459,1547.387451 
	C457.342651,1523.390747 471.365051,1499.132324 486.491150,1475.583496 
	C491.121002,1468.375488 492.972534,1460.928711 495.253052,1453.103516 
	C497.516815,1445.335815 496.917694,1437.691528 496.937317,1429.993774 
	C497.060944,1381.496094 496.999969,1332.997925 496.999969,1284.000000 
z"/>
<path fill="#003974" opacity="1.000000" stroke="none" 
	d="
M223.000000,698.000732 
	C154.521378,698.000732 86.542740,698.000732 17.754814,698.000732 
	C20.051374,692.295288 23.399231,687.866577 26.388958,683.316772 
	C48.941998,648.995728 71.674675,614.792542 94.175011,580.437134 
	C96.850098,576.352600 99.784447,574.879639 104.707779,574.885071 
	C235.858871,575.029785 367.011414,574.709351 498.160248,575.271912 
	C521.383179,575.371521 543.829895,581.661865 562.652039,596.470764 
	C571.538086,603.462097 578.293823,612.693604 584.895264,621.841614 
	C589.441223,628.141296 593.615173,634.726624 597.651428,641.369019 
	C599.434204,644.302795 600.378235,644.115723 601.922607,641.367981 
	C606.304932,633.570679 611.087280,626.047729 616.449097,618.853821 
	C628.850830,602.214539 645.341431,591.356079 664.440063,584.026428 
	C673.258789,580.641907 682.234436,577.788940 691.454834,575.661926 
	C693.618164,575.162842 695.712280,575.015015 697.854919,575.014771 
	C830.339355,574.999023 962.823792,575.018860 1095.308105,574.916382 
	C1099.445312,574.913208 1101.934814,576.196899 1104.239502,579.645630 
	C1120.988647,604.709656 1137.954224,629.629089 1154.825195,654.611938 
	C1162.794434,666.413025 1170.640137,678.298340 1178.690308,690.043762 
	C1180.698120,692.973206 1180.499268,694.154724 1176.766846,694.004822 
	C1175.269531,693.944641 1173.767578,693.999634 1172.267822,693.999634 
	C1055.281494,693.999878 938.295288,694.011108 821.309021,693.984985 
	C807.251770,693.981873 794.169800,698.231445 781.430359,703.412476 
	C760.057983,712.104431 740.136841,723.169189 724.592224,740.843994 
	C720.865723,745.081177 717.654053,749.410950 715.382385,754.728943 
	C711.786438,763.147522 706.814331,770.774292 698.303223,775.356873 
	C695.834900,776.685852 693.347046,777.019226 690.643494,777.018066 
	C629.817322,776.992737 568.990967,776.931763 508.165131,777.072083 
	C499.108246,777.092957 493.620941,772.168335 489.664734,765.118103 
	C469.295593,728.818970 437.257568,709.116699 397.714996,699.947266 
	C390.896515,698.366150 383.982666,697.949707 376.981445,697.960022 
	C325.821075,698.035583 274.660492,698.000732 223.000000,698.000732 
z"/>
<path fill="#A68137" opacity="1.000000" stroke="none" 
	d="
M867.986084,264.304413 
	C867.996765,276.777924 868.464294,288.799561 867.872009,300.768829 
	C867.248352,313.373047 865.912109,325.957489 863.145874,338.344391 
	C862.668701,340.481476 861.987122,341.148010 859.996887,341.015015 
	C858.503845,340.915161 856.998596,340.999786 855.498779,340.999786 
	C687.684753,341.000031 519.870667,341.000000 352.056641,341.000000 
	C341.031250,341.000000 340.842407,341.013428 340.051453,329.889130 
	C338.877533,313.379059 337.212036,296.858582 338.047241,280.287384 
	C339.940247,242.728836 345.784424,205.958649 360.473755,170.991806 
	C370.005981,148.301086 382.338348,127.441490 398.552338,108.786217 
	C411.312256,94.105087 426.378693,82.327713 441.575989,70.374908 
	C457.471283,57.873146 474.336517,47.429832 492.497833,38.830528 
	C511.222229,29.964624 530.906677,24.112892 551.162292,19.992531 
	C572.562073,15.639426 594.253967,15.103029 615.885315,16.186928 
	C638.172668,17.303694 660.086548,21.514824 681.447815,28.198399 
	C695.355530,32.549889 708.860901,37.944897 721.887024,44.465313 
	C738.218933,52.640491 752.864868,63.321262 767.258972,74.520767 
	C779.489624,84.036896 790.473755,94.768440 801.223572,105.793343 
	C814.469177,119.377831 825.266052,134.820465 834.675720,151.260300 
	C847.128113,173.016296 855.842834,196.211533 861.282654,220.643692 
	C864.061462,233.124664 866.577759,245.659698 867.037964,258.507019 
	C867.101807,260.290100 867.651917,262.055786 867.986084,264.304413 
z"/>
<path fill="#003974" opacity="1.000000" stroke="none" 
	d="
M159.002014,1323.000000 
	C156.823578,1356.857910 163.874130,1388.838501 174.295502,1420.126099 
	C183.916107,1449.009521 197.183853,1476.286987 213.569351,1501.994873 
	C226.058380,1521.589600 239.980148,1540.040649 255.610886,1557.307373 
	C279.367523,1583.550293 305.715851,1606.567017 335.998199,1624.967773 
	C339.069672,1626.834106 339.514435,1628.172974 337.406952,1631.495483 
	C321.972504,1655.829102 306.805725,1680.332886 291.624359,1704.826294 
	C289.781311,1707.799927 287.982635,1707.565308 285.440033,1705.765869 
	C269.495880,1694.481689 253.824722,1682.869385 238.754486,1670.405151 
	C218.357925,1653.535278 199.058395,1635.502686 180.929276,1616.280884 
	C156.425354,1590.300049 134.717346,1562.183716 117.293022,1530.827881 
	C101.457901,1502.331787 88.490669,1472.639160 78.450073,1441.672852 
	C70.121681,1415.987183 63.960400,1389.751709 60.120461,1363.011963 
	C59.202911,1356.622437 58.937473,1350.151489 58.939888,1343.649048 
	C59.013042,1146.494873 58.999477,949.340759 58.999565,752.186646 
	C58.999569,742.000854 58.999947,742.000366 69.428001,742.000305 
	C96.926254,742.000244 124.424507,741.997681 151.922760,742.002808 
	C158.986252,742.004150 158.999603,742.015625 158.999695,749.037048 
	C159.002258,940.191345 159.001892,1131.345703 159.002014,1323.000000 
z"/>
<path fill="#003974" opacity="1.000000" stroke="none" 
	d="
M1045.000000,821.000000 
	C1045.000366,795.669006 1045.128296,770.836731 1044.892334,746.007996 
	C1044.845947,741.115356 1046.350830,739.863831 1051.106812,739.898132 
	C1079.602661,740.103760 1108.101440,740.106384 1136.597290,739.897644 
	C1141.484253,739.861877 1143.123291,740.985168 1143.119629,746.215515 
	C1142.981201,941.530579 1143.061035,1136.845703 1142.880615,1332.160645 
	C1142.867676,1346.204346 1140.189331,1360.146362 1137.780884,1373.992065 
	C1132.355591,1405.180542 1124.671875,1435.814697 1113.950195,1465.628784 
	C1098.654297,1508.163452 1078.287720,1547.908447 1050.139160,1583.573364 
	C1033.125122,1605.130737 1014.923584,1625.545654 995.002136,1644.375244 
	C970.898132,1667.158569 945.499695,1688.410889 917.822632,1706.828247 
	C914.844727,1708.809814 913.501343,1708.492188 911.683411,1705.415894 
	C897.277405,1681.037476 882.726868,1656.744263 868.155090,1632.464355 
	C866.146729,1629.118042 866.138855,1626.968872 869.879578,1624.548096 
	C887.182861,1613.351074 902.749084,1600.014648 917.771301,1585.895386 
	C943.895691,1561.341187 966.222412,1533.744019 985.737732,1503.787720 
	C1012.722900,1462.364990 1031.273560,1417.440430 1040.760498,1368.905518 
	C1043.684326,1353.947876 1045.055054,1338.768799 1045.047974,1323.451782 
	C1044.971313,1156.134521 1045.000000,988.817261 1045.000000,821.000000 
z"/>
<path fill="#003974" opacity="1.000000" stroke="none" 
	d="
M276.000000,742.000244 
	C285.499054,742.003174 294.500610,742.129639 303.495911,741.947388 
	C307.029846,741.875854 308.341766,743.204102 308.021423,746.612854 
	C307.866211,748.264526 308.001099,749.943237 308.001099,751.609741 
	C308.001373,941.423279 308.047150,1131.236816 307.940948,1321.050415 
	C307.928284,1343.717407 313.807281,1364.934937 322.319672,1385.572754 
	C333.395569,1412.425293 349.848572,1435.668335 369.937622,1456.607788 
	C383.880493,1471.140869 398.827698,1484.348022 415.461823,1495.640137 
	C418.458710,1497.674438 419.607208,1499.052124 417.252075,1502.670654 
	C401.261292,1527.240601 385.487244,1551.952026 369.754425,1576.688599 
	C368.326233,1578.934082 367.094391,1579.197144 364.976807,1577.937500 
	C351.441406,1569.887085 338.660919,1560.797852 326.330261,1550.987183 
	C317.997803,1544.357788 310.057037,1537.246216 302.610901,1529.774414 
	C291.285675,1518.410278 280.529022,1506.414307 271.106384,1493.316284 
	C249.166290,1462.818359 232.098862,1429.822144 220.580185,1394.067993 
	C214.468750,1375.097900 210.821838,1355.766968 210.848129,1335.548950 
	C211.101517,1140.569702 210.994507,945.589844 211.016434,750.610168 
	C211.017532,740.940186 209.944992,742.047913 219.505539,742.017700 
	C238.170181,741.958679 256.835175,742.000305 276.000000,742.000244 
z"/>
<path fill="#003974" opacity="1.000000" stroke="none" 
	d="
M896.999756,1149.000000 
	C896.999756,1014.843445 896.999390,881.186829 897.000916,747.530273 
	C897.000977,740.007263 897.008301,740.000977 904.581482,740.000305 
	C932.412720,739.997925 960.244446,740.080872 988.074707,739.917175 
	C992.473389,739.891235 994.098206,740.929688 994.095337,745.693970 
	C993.980225,937.179443 994.116028,1128.665161 993.789307,1320.150146 
	C993.760620,1336.970337 989.436951,1353.571045 985.804626,1370.042847 
	C979.796143,1397.289062 971.543518,1423.849854 959.317505,1448.981201 
	C951.690063,1464.660156 941.940857,1479.062256 930.950439,1492.664429 
	C918.913269,1507.562134 905.726624,1521.363403 891.874390,1534.510254 
	C875.649170,1549.909546 858.666870,1564.456787 840.786987,1577.950684 
	C837.789795,1580.212646 836.836670,1579.423828 835.218018,1576.823975 
	C822.345703,1556.148315 809.378601,1535.531616 796.444702,1514.894287 
	C794.248413,1511.389893 792.202393,1507.782593 789.845764,1504.390381 
	C787.965759,1501.684204 788.175842,1500.126709 790.959534,1497.906860 
	C817.546509,1476.705811 841.770142,1453.169678 860.743591,1424.731812 
	C877.263428,1399.971436 886.311157,1372.182861 893.066162,1343.466431 
	C896.714539,1327.956787 897.119446,1312.297119 897.063354,1296.488770 
	C896.889526,1247.493042 896.999756,1198.496338 896.999756,1149.000000 
z"/>
<path fill="#A68137" opacity="1.000000" stroke="none" 
	d="
M432.000000,388.000000 
	C407.838318,387.999878 384.176331,387.941559 360.515350,388.070923 
	C357.443054,388.087708 355.823273,387.243011 354.606415,384.325958 
	C351.099243,375.918427 347.572754,367.536560 345.255096,358.611176 
	C346.988525,357.505981 348.836426,358.027405 350.565430,358.027100 
	C518.530090,357.998077 686.494690,358.008972 854.459351,357.948212 
	C858.627197,357.946686 860.856079,357.909973 859.233521,363.492462 
	C857.214966,370.437622 854.990234,377.186157 851.792542,383.672516 
	C850.187927,386.927582 848.083679,388.106506 844.412781,388.081512 
	C820.918823,387.921295 797.423218,388.000000 773.928162,388.000000 
	C660.118774,388.000031 546.309387,388.000000 432.000000,388.000000 
z"/>
<path fill="#A68137" opacity="1.000000" stroke="none" 
	d="
M771.000000,432.000000 
	C644.885620,432.000000 519.271057,431.931854 393.657135,432.175323 
	C386.391541,432.189423 380.976044,430.920837 376.978180,424.595764 
	C373.079620,418.427826 368.974792,412.406433 365.789032,405.281281 
	C523.401855,405.281281 680.511597,405.281281 838.324768,405.281281 
	C833.151306,415.280518 827.232300,423.982635 819.243958,431.211334 
	C817.793396,432.523926 816.074036,431.964203 814.481812,431.969910 
	C800.154663,432.021149 785.827332,431.999939 771.000000,432.000000 
z"/>
<path fill="#A68137" opacity="1.000000" stroke="none" 
	d="
M763.999146,471.000000 
	C649.346985,471.000092 535.194580,470.990784 421.042236,471.057556 
	C418.341095,471.059143 416.543091,470.347076 414.663696,468.317078 
	C409.510834,462.751373 403.835754,457.668762 398.967224,451.000763 
	C401.315491,451.000763 403.373413,451.000763 405.431305,451.000763 
	C535.415039,451.000763 665.398804,451.000824 795.382568,451.000854 
	C796.715698,451.000854 798.054688,450.925018 799.380249,451.025513 
	C800.477905,451.108734 801.978882,450.426331 802.588318,451.592896 
	C803.433716,453.211029 801.585083,453.823975 800.762634,454.676697 
	C797.139038,458.433899 794.102966,462.692749 789.793274,465.882690 
	C785.871338,468.785645 782.302124,471.565186 776.990295,471.076050 
	C772.859192,470.695648 768.665100,470.999969 763.999146,471.000000 
z"/>
<path fill="#A68137" opacity="1.000000" stroke="none" 
	d="
M737.477295,507.954590 
	C734.232666,509.110931 731.267090,509.006287 728.301941,509.005981 
	C645.191711,508.997528 562.080444,508.806091 478.972656,509.252747 
	C469.002441,509.306305 461.126434,506.214966 453.447174,500.940369 
	C450.352081,498.814484 446.850006,497.161407 444.386353,493.410522 
	C549.170715,493.410522 653.603027,493.410522 758.860535,493.410522 
	C752.605347,499.918701 744.726379,503.170013 737.477295,507.954590 
z"/>
<path fill="#A68137" opacity="1.000000" stroke="none" 
	d="
M618.911499,551.000000 
	C608.428650,551.000000 598.426697,551.261658 588.442627,550.949951 
	C560.862915,550.088989 533.923950,545.832642 508.418823,534.714478 
	C506.680450,533.956726 504.014130,534.419373 503.297272,531.335449 
	C571.327820,531.335449 639.221375,531.335449 707.114929,531.335449 
	C679.128967,543.766113 649.619202,548.989075 618.911499,551.000000 
z"/>
</svg>