<?xml version="1.0" standalone="no"?><!DOCTYPE svg PUBLIC "-//W3C//DTD SVG 1.1//EN" "http://www.w3.org/Graphics/SVG/1.1/DTD/svg11.dtd"><svg t="1690082963008" class="icon" viewBox="0 0 1501 1024" version="1.1" xmlns="http://www.w3.org/2000/svg" p-id="1516" xmlns:xlink="http://www.w3.org/1999/xlink" width="293.1640625" height="200"><path d="M1403.062529 303.010087L775.870856 23.143025a89.682024 89.682024 0 0 0-73.125688 0L75.553496 303.010087A89.682024 89.682024 0 0 0 22.389508 384.918026c0 32.059699 17.161237 61.251725 44.359332 77.247969 8.244563 9.476766 17.586907 16.802777 25.271377 22.694951 16.982007 12.926937 21.552363 17.766137 21.552363 27.063674 0 9.275133-4.570355 14.114333-21.552363 27.041269-17.900559 13.688663-45.031444 34.389685-45.031443 74.604332 0 40.192244 27.130885 60.893265 45.031443 74.604332 12.299633 9.364748 18.034981 14.495196 20.320159 20.140929a59.638658 59.638658 0 0 0-54.485806 51.797362l-15.794611 123.825268a59.77308 59.77308 0 0 0 59.325006 67.39034h86.007817a59.77308 59.77308 0 0 0 59.325006-67.39034l-15.772207-123.825268a59.728273 59.728273 0 0 0-58.160013-52.133417c-3.114115-35.353044-27.668574-54.553017-44.448948-67.367936-16.9372-12.904533-21.529959-17.743733-21.529958-27.04127 0-9.297537 4.592759-14.114333 21.507555-27.04127 17.96777-13.711066 45.076251-34.412088 45.076251-74.604331 0-0.492881-0.112019-0.896148-0.112019-1.366626l106.238361 47.473447a83.565813 83.565813 0 0 0-0.985763 11.13464v235.14927c0 170.133723 326.332342 188.504759 466.669139 188.504759 140.29199 0 466.646735-18.371037 466.646735-188.504759v-239.719625c0-4.099878-0.403267-8.132544-0.940955-12.120403l192.089352-85.582147a89.682024 89.682024 0 0 0 0.067211-163.883089zM101.384965 891.510564l15.794611-123.825268H171.598171l15.794611 123.825268H101.384965z m1020.735125-186.846885c-15.861822 20.096122-54.754651 43.62001-120.621538 62.461525-11.851559 3.382959-24.576862 6.586689-37.795048 9.566381a29.931348 29.931348 0 0 0 13.106167 58.361647c14.33837-3.20373 28.161455-6.721111 41.110795-10.417722 42.096558-12.030789 77.023932-26.638003 104.199624-43.306359v22.9862c0 54.553017-168.767097 98.777928-376.919904 98.777928-208.197614 0-376.964711-44.22491-376.964711-98.777928v-24.644074c82.131976 51.998995 230.982181 78.838632 378.734604 78.838632 34.479299 0 68.667351-1.433837 101.668005-4.279107a29.908944 29.908944 0 1 0-5.130448-59.593851c-31.27557 2.688444-63.738536 4.05507-96.537557 4.05507-209.833085 0-351.536508-54.060136-378.734604-98.643505v-102.36252l333.479123 149.029434a89.83885 89.83885 0 0 0 73.125688 0.044807l347.279804-154.719974v112.623416z m-383.797841-39.878592L112.116339 384.94043 739.308012 105.073368l627.191673 279.867062-628.177436 279.844657z" p-id="1517"></path></svg>